<svg width="17" height="15" viewBox="0 0 17 15" fill="none" xmlns="http://www.w3.org/2000/svg">
<path d="M1.35096 0.751365C1.14379 0.751365 0.975403 0.582997 0.975403 0.375804C0.975403 0.168627 1.14377 0.000244141 1.35096 0.000244141H3.77466C3.94154 0.000244141 4.08298 0.108684 4.13161 0.259475L5.25241 3.18401H16.6244C16.8316 3.18401 17 3.35237 17 3.55957C17 3.60477 16.9921 3.64838 16.9774 3.68821L14.9945 10.2918C14.9459 10.4543 14.7967 10.5598 14.6352 10.5598V10.5603H7.44162C7.29734 10.5603 7.16618 10.6192 7.07097 10.7144C6.97576 10.8096 6.91687 10.9407 6.91687 11.085V11.0953C6.91687 11.2401 6.97577 11.3716 7.07051 11.4664L7.07154 11.4653C7.16674 11.5605 7.2979 11.6194 7.44219 11.6194H13.9634C14.171 11.6194 14.3389 11.7878 14.3389 11.995C14.3389 12.2022 14.1706 12.3706 13.9634 12.3706H7.44219C7.09074 12.3706 6.77158 12.2272 6.54031 11.9965L6.54134 11.9955L6.54031 11.9944C6.30962 11.7638 6.16624 11.445 6.16624 11.0946V11.0843C6.16624 10.7329 6.30961 10.4137 6.54031 10.183C6.77101 9.95232 7.09016 9.80895 7.44219 9.80895H14.357L16.1209 3.93475H5.54139L7.35052 8.65614C7.42415 8.84962 7.32701 9.06662 7.13307 9.14023C6.93959 9.21386 6.72259 9.11672 6.64898 8.92278L4.65184 3.71046C4.64693 3.69916 4.64248 3.68786 4.63859 3.6761L3.51779 0.751279H1.3523L1.35096 0.751365ZM12.957 13.2157C13.4166 13.2157 13.7896 13.5883 13.7896 14.0478C13.7896 14.5079 13.4171 14.8804 12.957 14.8804C12.4975 14.8804 12.1249 14.5079 12.1249 14.0478C12.1249 13.5883 12.4975 13.2157 12.957 13.2157ZM7.90866 13.2157C8.36823 13.2157 8.74081 13.5883 8.74081 14.0478C8.74081 14.5079 8.36823 14.8804 7.90866 14.8804C7.44865 14.8804 7.07607 14.5079 7.07607 14.0478C7.07607 13.5883 7.44865 13.2157 7.90866 13.2157Z" fill="white"/>
</svg>
