<svg width="15" height="15" viewBox="0 0 15 15" fill="none" xmlns="http://www.w3.org/2000/svg">
<path d="M7.15834 0.912723C7.15834 1.08732 7.03134 1.23014 6.85674 1.24609C3.36487 1.38892 0.634857 4.24593 0.634857 7.7378C0.634857 9.76943 1.57129 11.6582 3.17446 12.8962V10.436C3.17446 10.2614 3.31728 10.1186 3.49187 10.1186C3.66647 10.1186 3.80929 10.2614 3.80929 10.436V13.6105C3.80929 13.7851 3.66646 13.9279 3.49187 13.9279H0.317443C0.142844 13.9279 2.83275e-05 13.7851 2.83275e-05 13.6105C2.83275e-05 13.4359 0.142852 13.293 0.317443 13.293H2.65065C0.984045 11.9439 0 9.89641 0 7.7378C0 3.89674 2.99983 0.76993 6.82502 0.595337C6.99962 0.595337 7.14244 0.738161 7.15828 0.912751L7.15834 0.912723ZM11.6343 2.18252H13.9675C14.1421 2.18252 14.2849 2.0397 14.2849 1.86511C14.2849 1.69051 14.1421 1.54769 13.9675 1.54769H10.7931C10.6185 1.54769 10.4756 1.69052 10.4756 1.86511V5.03954C10.4756 5.21414 10.6185 5.35695 10.7931 5.35695C10.9677 5.35695 11.1105 5.21413 11.1105 5.03954V2.57933C12.7135 3.81735 13.6501 5.70614 13.6501 7.73777C13.6501 11.2138 10.9359 14.0708 7.45993 14.2453C7.28534 14.2612 7.14252 14.4041 7.15834 14.5787C7.17417 14.7533 7.30116 14.8803 7.47575 14.8803H7.49158C11.3009 14.6898 14.2849 11.563 14.2849 7.73786C14.2849 5.57925 13.3008 3.53174 11.6342 2.18261L11.6343 2.18252Z" fill="white"/>
</svg>
